<svg width="100" height="170" viewBox="0 0 100 170" fill="none" xmlns="http://www.w3.org/2000/svg">
<path d="M98.7185 119.021L13.5114 33.8136C8.20585 28.5081 4.49199 21.717 2.79421 14.3953L0.0353208 1.98037C-0.283012 0.388704 1.62699 -0.672406 2.68809 0.494815L88.2135 86.0202C95.4291 93.2358 99.5674 102.892 99.8857 112.972L99.9918 118.384C100.098 119.233 99.143 119.551 98.7185 119.021Z" fill="#515065"/>
<path d="M93.413 85.7018L73.1458 65.4346C72.7213 65.0102 72.9335 64.2674 73.4641 64.1613C81.953 61.5085 90.8663 66.708 92.6702 75.4091L94.5802 84.8529C95.1107 85.7018 94.0496 86.3385 93.413 85.7018Z" fill="#515065"/>
<path d="M85.4546 133.982L22.9553 71.4829C17.5436 66.0713 13.8297 59.2802 12.2381 51.9585L9.58531 39.7557C9.26698 38.1641 11.177 37.2091 12.2381 38.2702L96.7024 122.734C97.0207 123.053 97.0207 123.583 96.7024 123.902L86.6219 133.982C86.3035 134.301 85.773 134.301 85.4546 133.982Z" fill="#515065"/>
<path d="M19.3475 77.6375L22.0003 89.8402C23.592 97.268 27.3059 104.165 32.7175 109.471L53.0908 129.844C57.3353 134.088 58.8208 140.243 57.0169 145.973L49.8014 168.575C49.5892 169.317 50.5442 169.954 51.0747 169.423L82.4835 138.015C82.8019 137.696 82.8019 137.166 82.4835 136.847L21.8942 76.258C20.8331 74.9847 19.0292 76.0458 19.3475 77.6375Z" fill="#515065"/>
</svg>
