<svg xmlns="http://www.w3.org/2000/svg" viewBox="0 0 988.34 214.53"><defs><style>.cls-1{fill:#515065;}</style></defs><g id="Layer_2" data-name="Layer 2"><g id="Layer_1-2" data-name="Layer 1"><path class="cls-1" d="M528.28,149,421.75,42.43A50.06,50.06,0,0,1,408.31,18L404.83,2.45A2,2,0,0,1,408.2.59l107,107a50.07,50.07,0,0,1,14.62,33.93l.19,6.73A1,1,0,0,1,528.28,149Z"/><path class="cls-1" d="M520.37,105.55,494.6,79.78a1,1,0,0,1,.4-1.66h0A18.91,18.91,0,0,1,519.2,92.3L522,104.51A1,1,0,0,1,520.37,105.55Z"/><path class="cls-1" d="M511.94,168.13,432.86,89.05a49.91,49.91,0,0,1-13.47-24.6L416,49.13a2,2,0,0,1,3.37-1.84L526.08,154a1,1,0,0,1,0,1.41l-12.73,12.73A1,1,0,0,1,511.94,168.13Z"/><path class="cls-1" d="M427.11,95.32l3.33,15.3a50,50,0,0,0,13.5,24.73l27.52,27.52a20,20,0,0,1,4.91,20.2l-10.1,30.81a.5.5,0,0,0,.83.5L508.53,173a1,1,0,0,0,0-1.41l-78-78.06A2,2,0,0,0,427.11,95.32Z"/><path class="cls-1" d="M0,167.76l3.92-5.89V114.69L.26,106.45v-.65H22.61v56.07l3.93,5.89v.65H0Z"/><path class="cls-1" d="M98.82,167.76v.65H72.55v-.65l3.79-5.89V126.58c0-8-5-10.72-11.11-10.72a16.3,16.3,0,0,0-8.5,2.22v43.79l3.79,5.89v.65H34.12v-.65L38,161.87V114.69l-3.66-8.24v-.65H56.73v10.46c4.32-5.89,11.64-11.77,21.18-11.77,10.72,0,17,7.32,17,18.17v39.21Z"/><path class="cls-1" d="M104.71,150.5h1.57l7,6.67c7.19,6.67,10.46,9.67,16.34,9.67,5.49,0,9.94-2.87,9.94-8.89,0-4.57-2.22-7.45-7.19-9.93s-12.68-4.58-18.17-7.84S106,131.81,106,124.49c0-10.33,8.24-19.48,22.36-19.48,4,0,8.1.79,12.81.79h6.14l3.4,15.68h-1.57l-6.8-6.4c-6.79-6.41-9.28-7.71-14.37-7.71s-8.63,3-8.63,7.71c0,4.31,2.35,6.8,6.93,9s12.67,4.44,18,7.58,8.63,7.58,8.63,15.69c0,11.63-9.8,21.82-23.66,21.82-4.83,0-9.28-.78-14.51-.78h-5.88Z"/><path class="cls-1" d="M222.09,167.76v.65H202.75l-2.22-10.85c-4.19,6.54-11.25,12.16-20.79,12.16-11,0-17.51-7.71-17.51-19.09V114.69l-3.8-8.24v-.65h22.36V147c0,8.37,5,11.25,11.11,11.25a15.48,15.48,0,0,0,8.23-2.23v-41.3l-3.66-8.24v-.65h22.36v49.8Z"/><path class="cls-1" d="M273.86,105.27v19.09H257.39a11.6,11.6,0,0,0-4.58.78v36.73l4.19,5.89v.65H230.2v-.65l3.92-5.89V114.69l-3.66-8.24v-.65h22.35v17.38c3.8-8.62,10.2-17.91,19.61-17.91Z"/><path class="cls-1" d="M334.91,152.2c-3.27,8.63-11.77,17.52-27.06,17.52-18.3,0-30.2-12.94-30.2-31.24,0-19.35,12.94-34,30.59-34,14.77,0,24.84,9.41,26.14,23.53H293.86c.13,16.34,7.19,28.23,24.05,28.23,7.19,0,12.68-2.22,15.95-5Zm-41.05-26.79H315c-.66-12.55-3.66-18-10.2-18S294.25,112.59,293.86,125.41Z"/><path class="cls-1" d="M404.37,136.55c0,16.94-11.88,31.86-30.75,31.86H339.31v-.65l4-5.89V114.66l-3.63-8.08v-.79h33.79C393,105.79,404.37,120.16,404.37,136.55Zm-20,.73c0-19.07-5.81-28.87-17.87-28.87h-4.56V165.8h4.74C378.64,165.8,384.35,156.53,384.35,137.28Z"/><path class="cls-1" d="M935.2,136.55c0,16.94-11.88,31.86-30.76,31.86h-34.3v-.65l4-5.89V114.66l-3.63-8.08v-.79h33.8C923.78,105.79,935.2,120.16,935.2,136.55Zm-20,.73c0-19.07-5.8-28.87-17.87-28.87h-4.55V165.8h4.74C909.46,165.8,915.17,156.53,915.17,137.28Z"/><path class="cls-1" d="M624.31,167.76v.65H598v-.65l3.79-5.89V126.58c0-8-5-10.72-11.11-10.72a16.3,16.3,0,0,0-8.5,2.22v43.79l3.8,5.89v.65H559.6v-.65l3.92-5.89V114.69l-3.66-8.24v-.65h22.35v10.46c4.32-5.89,11.64-11.77,21.18-11.77,10.72,0,17,7.32,17,18.17v39.21Z"/><path class="cls-1" d="M630.19,137.69c0-19.87,13.6-33.2,32.42-33.2,18,0,31.76,13.33,31.76,32,0,19.86-13.59,33.2-32.28,33.2C644.05,169.72,630.19,156.38,630.19,137.69Zm43.4-.52c0-21.44-3.27-30.2-11.24-30.2C654,107,651,115.86,651,137c0,21.44,3.26,30.19,11.37,30.19S673.59,158.35,673.59,137.17Z"/><path class="cls-1" d="M801.82,167.76v.65H775.55v-.65l3.66-5.89V126.58c0-8-4.7-10.72-10.72-10.72a16,16,0,0,0-7.84,2.09v43.92l3.66,5.89v.65H738.17v-.65l3.79-5.89V126.32c0-7.71-4.58-10.46-10.59-10.46a14.76,14.76,0,0,0-8.11,2.09v43.92l3.8,5.89v.65H700.65v-.65l3.92-5.89V114.69l-3.66-8.24v-.65h22.35v10.46c4.19-5.89,11.25-11.77,20.79-11.77,9.28,0,14.64,5.88,16.34,12,4.31-6.15,11.37-12,20.78-12,10.46,0,16.73,7.45,16.73,18.17v39.21Z"/><path class="cls-1" d="M866.13,167.76v.65H855.42a13.75,13.75,0,0,1-13.59-9.8c-3,5.62-8.63,10.58-17.91,10.58s-15.82-5.88-15.82-14.9c0-7.71,5.49-12.55,13.86-16.21a114.43,114.43,0,0,1,19.48-6.27V120.18c0-7.19-4.06-10.07-10.85-10.07a17.45,17.45,0,0,0-5.36.79v15.55H807.71c1.18-6.67,6-11.89,12.42-15.69s14.12-6.27,21.44-6.27c11.5,0,18,5.75,18,17v34.14Zm-24.69-10.85V134.29a43.49,43.49,0,0,0-10.33,3.93c-3.14,1.83-5,4.57-5,9.93,0,7.19,3.14,11.11,8.37,11.11A10.73,10.73,0,0,0,841.44,156.91Z"/><path class="cls-1" d="M940.1,150.5h1.57l7.06,6.67c7.19,6.67,10.46,9.67,16.34,9.67,5.49,0,9.93-2.87,9.93-8.89,0-4.57-2.22-7.45-7.19-9.93s-12.68-4.58-18.17-7.84-8.23-8.37-8.23-15.69c0-10.33,8.23-19.48,22.35-19.48,4,0,8.11.79,12.81.79h6.15l3.39,15.68h-1.56l-6.8-6.4c-6.8-6.41-9.28-7.71-14.38-7.71s-8.63,3-8.63,7.71c0,4.31,2.36,6.8,6.93,9s12.68,4.44,18,7.58,8.63,7.58,8.63,15.69c0,11.63-9.81,21.82-23.66,21.82-4.84,0-9.28-.78-14.51-.78h-5.89Z"/></g></g></svg>